<!DOCTYPE svg PUBLIC "-//W3C//DTD SVG 1.1//EN" "http://www.w3.org/Graphics/SVG/1.1/DTD/svg11.dtd">

<!-- Uploaded to: SVG Repo, www.svgrepo.com, Transformed by: SVG Repo Mixer Tools -->
<svg fill="#000000" viewBox="0 0 24 24" id="delete-alt" data-name="Flat Color" xmlns="http://www.w3.org/2000/svg" class="icon flat-color"><g id="SVGRepo_bgCarrier" stroke-width="0"></g><g id="SVGRepo_tracerCarrier" stroke-linecap="round" stroke-linejoin="round"></g><g id="SVGRepo_iconCarrier"><path id="secondary" d="M16,8a1,1,0,0,1-1-1V4H9V7A1,1,0,0,1,7,7V4A2,2,0,0,1,9,2h6a2,2,0,0,1,2,2V7A1,1,0,0,1,16,8Z" style="fill: #2ca9bc;"></path><path id="primary" d="M20,6H4A1,1,0,0,0,4,8H5V20a2,2,0,0,0,2,2H17a2,2,0,0,0,2-2V8h1a1,1,0,0,0,0-2Z" style="fill: #000000;"></path><path id="secondary-2" data-name="secondary" d="M10,18a1,1,0,0,1-1-1V11a1,1,0,0,1,2,0v6A1,1,0,0,1,10,18Zm5-1V11a1,1,0,0,0-2,0v6a1,1,0,0,0,2,0Z" style="fill: #2ca9bc;"></path></g></svg>